<?xml version="1.0" encoding="UTF-8"?>
<svg width="90px" height="62px" viewBox="0 0 90 62" version="1.1" xmlns="http://www.w3.org/2000/svg" xmlns:xlink="http://www.w3.org/1999/xlink">
    <!-- Generator: Sketch 52.2 (67145) - http://www.bohemiancoding.com/sketch -->
    <title>Rectangle</title>
    <desc>Created with Sketch.</desc>
    <g id="需求修改清单0606" stroke="none" stroke-width="1" fill="none" fill-rule="evenodd">
        <g id="Group-8">
            <rect id="Rectangle" fill="#909090" opacity="0" x="0" y="0" width="90" height="62"></rect>
            <g id="Group-7" transform="translate(0.000000, 2.000000)" stroke="#D8D8D8" stroke-width="1.5">
                <path d="M18.6453025,0 L1.13782749,22.0563595 C0.997468304,22.2331876 0.921074407,22.4523074 0.921074407,22.6780703 L0.921074407,56.4933757 C0.921074407,57.0456604 1.36878966,57.4933757 1.92107441,57.4933757 L87.9211534,57.4933757 C88.4734382,57.4933757 88.9211534,57.0456604 88.9211534,56.4933757 L88.9211534,22.68821 C88.9211534,22.456262 88.8405233,22.2315275 88.6930678,22.0524835 L70.5312771,0 L18.6453025,0 Z" id="Path-8"></path>
                <path d="M20.6013154,4.51126018 L8.10668432,21.1391783 C7.77491097,21.5807039 7.86388279,22.2075866 8.30540843,22.53936 C8.47863547,22.6695271 8.68945523,22.7399071 8.90613721,22.7399071 L19.4525352,22.7399071 L19.4525352,37.4257727 C19.4525352,37.9780575 19.9002505,38.4257727 20.4525352,38.4257727 L68.629431,38.4257727 C69.1817157,38.4257727 69.629431,37.9780575 69.629431,37.4257727 L69.629431,22.7399071 L80.5949994,22.7399071 C81.1472841,22.7399071 81.5949994,22.2921918 81.5949994,21.7399071 C81.5949994,21.5142611 81.5186844,21.2952476 81.3784582,21.1184633 L68.2055341,4.51126018 L20.6013154,4.51126018 Z" id="Path-9" fill-opacity="0.2" fill="#D8D8D8"></path>
                <path d="M34,44.75 C33.8619288,44.75 33.75,44.8619288 33.75,45 L33.75,48 C33.75,48.1380712 33.8619288,48.25 34,48.25 L55,48.25 C55.1380712,48.25 55.25,48.1380712 55.25,48 L55.25,45 C55.25,44.8619288 55.1380712,44.75 55,44.75 L34,44.75 Z" id="Rectangle"></path>
            </g>
        </g>
    </g>
</svg>