<?xml version="1.0" encoding="UTF-8"?>
<svg width="90px" height="62px" viewBox="0 0 90 62" version="1.1" xmlns="http://www.w3.org/2000/svg" xmlns:xlink="http://www.w3.org/1999/xlink">
    <!-- Generator: Sketch 52.2 (67145) - http://www.bohemiancoding.com/sketch -->
    <title>Group 6</title>
    <desc>Created with Sketch.</desc>
    <g id="需求修改清单0606" stroke="none" stroke-width="1" fill="none" fill-rule="evenodd">
        <g id="Group-6" fill="#D8D8D8">
            <path d="M89.5413159,20.0566199 C90.1021053,20.6663795 90.0624071,21.6152969 89.4526475,22.1760863 C88.8428879,22.7368757 87.8939705,22.6971776 87.3331811,22.087418 C76.5107488,10.3199313 61.3045731,3.5 45,3.5 C28.9886154,3.5 14.0313837,10.0752969 3.23857927,21.4746953 C2.66901725,22.0762687 1.71962437,22.1022191 1.11805093,21.5326571 C0.516477498,20.9630951 0.490527122,20.0137022 1.06008915,19.4121287 C12.4137578,7.42034351 28.1558882,0.5 45,0.5 C62.1526404,0.5 78.1565786,7.67772581 89.5413159,20.0566199 Z" id="Path" fill-rule="nonzero"></path>
            <path d="M75.5972612,31.5031993 C76.1722897,32.0995495 76.1550051,33.0491397 75.5586548,33.6241683 C74.9623045,34.1991968 74.0127143,34.1819122 73.4376858,33.5855619 C66.0388835,25.9124166 55.8727107,21.5 45,21.5 C34.3390036,21.5 24.3539961,25.7411751 16.9863951,33.1524143 C16.4023409,33.7399278 15.4525976,33.7427322 14.865084,33.158678 C14.2775705,32.5746237 14.2747661,31.6248804 14.8588203,31.0373669 C22.7839368,23.0653102 33.532056,18.5 45,18.5 C56.6957797,18.5 67.6387136,23.2495536 75.5972612,31.5031993 Z" id="Path" fill-rule="nonzero"></path>
            <path d="M57.067995,40.8314471 C57.7785024,41.257441 58.0091461,42.1787573 57.5831523,42.8892647 C57.1571584,43.599772 56.2358421,43.8304158 55.5253347,43.4044219 C52.3711115,41.5132667 48.7616475,40.5 45,40.5 C39.1183282,40.5 33.6408954,42.9883857 29.7764293,47.2704586 C29.2214002,47.885466 28.2728981,47.934088 27.6578907,47.3790589 C27.0428832,46.8240297 26.9942613,45.8755276 27.5492904,45.2605202 C31.9767748,40.3545874 38.2602905,37.5 45,37.5 C49.3088667,37.5 53.4509032,38.6627731 57.067995,40.8314471 Z" id="Path" fill-rule="nonzero"></path>
            <path d="M66.4934873,50.0611221 L61.7205165,45.2881513 C61.4276233,44.9952581 60.9527496,44.9952581 60.6598564,45.2881513 C60.3669632,45.5810445 60.3669632,46.0559182 60.6598564,46.3488115 L65.4328271,51.1217822 L60.6598564,55.894753 C60.3669632,56.1876462 60.3669632,56.66252 60.6598564,56.9554132 C60.9527496,57.2483064 61.4276233,57.2483064 61.7205165,56.9554132 L66.4934873,52.1824424 L71.2664581,56.9554132 C71.5593513,57.2483064 72.034225,57.2483064 72.3271183,56.9554132 C72.6200115,56.66252 72.6200115,56.1876462 72.3271183,55.894753 L67.5541475,51.1217822 L72.3271183,46.3488115 C72.6200115,46.0559182 72.6200115,45.5810445 72.3271183,45.2881513 C72.034225,44.9952581 71.5593513,44.9952581 71.2664581,45.2881513 L66.4934873,50.0611221 Z M66,62 C59.9248678,62 55,57.0751322 55,51 C55,44.9248678 59.9248678,40 66,40 C72.0751322,40 77,44.9248678 77,51 C77,57.0751322 72.0751322,62 66,62 Z" id="Combined-Shape"></path>
            <circle id="Oval" cx="45.5" cy="60.5" r="1.5"></circle>
        </g>
    </g>
</svg>