<?xml version="1.0" encoding="UTF-8"?>
<svg width="16px" height="16px" viewBox="0 0 16 16" version="1.1" xmlns="http://www.w3.org/2000/svg" xmlns:xlink="http://www.w3.org/1999/xlink">
    <!-- Generator: Sketch 52.2 (67145) - http://www.bohemiancoding.com/sketch -->
    <title>关闭</title>
    <desc>Created with Sketch.</desc>
    <g id="需求修改清单0606" stroke="none" stroke-width="1" fill="none" fill-rule="evenodd">
        <g id="关闭-2" transform="translate(1.000000, 1.000000)" fill="#999999" fill-rule="nonzero">
            <g id="关闭">
                <path d="M-0.353553391,0.353553391 C-0.548815536,0.158291245 -0.548815536,-0.158291245 -0.353553391,-0.353553391 C-0.158291245,-0.548815536 0.158291245,-0.548815536 0.353553391,-0.353553391 L14.3535534,13.6464466 C14.5488155,13.8417088 14.5488155,14.1582912 14.3535534,14.3535534 C14.1582912,14.5488155 13.8417088,14.5488155 13.6464466,14.3535534 L-0.353553391,0.353553391 Z" id="Path-2"></path>
                <path d="M-0.353553391,0.353553391 C-0.548815536,0.158291245 -0.548815536,-0.158291245 -0.353553391,-0.353553391 C-0.158291245,-0.548815536 0.158291245,-0.548815536 0.353553391,-0.353553391 L14.3535534,13.6464466 C14.5488155,13.8417088 14.5488155,14.1582912 14.3535534,14.3535534 C14.1582912,14.5488155 13.8417088,14.5488155 13.6464466,14.3535534 L-0.353553391,0.353553391 Z" id="Path-2" transform="translate(7.000000, 7.000000) rotate(-270.000000) translate(-7.000000, -7.000000) "></path>
            </g>
        </g>
    </g>
</svg>